<svg width="0" height="0">
  <symbol fill="none" xmlns="http://www.w3.org/2000/svg" viewBox="0 0 24 24" id="icon-error">
    <path d="M12 22C6.477 22 2 17.523 2 12C2 6.477 6.477 2 12 2C17.523 2 22 6.477 22 12C22 17.523 17.523 22 12 22ZM12 20C14.1217 20 16.1566 19.1571 17.6569 17.6569C19.1571 16.1566 20 14.1217 20 12C20 9.87827 19.1571 7.84344 17.6569 6.34315C16.1566 4.84285 14.1217 4 12 4C9.87827 4 7.84344 4.84285 6.34315 6.34315C4.84285 7.84344 4 9.87827 4 12C4 14.1217 4.84285 16.1566 6.34315 17.6569C7.84344 19.1571 9.87827 20 12 20V20ZM11 15H13V17H11V15ZM11 7H13V13H11V7Z" fill="currentColor"></path>
  </symbol>
  <symbol fill="none" xmlns="http://www.w3.org/2000/svg" viewBox="0 0 24 24" id="icon-minus">
    <path d="M5 11H19V13H5V11Z" fill="currentColor"></path>
  </symbol>
  <symbol fill="none" xmlns="http://www.w3.org/2000/svg" viewBox="0 0 24 24" id="icon-plus">
    <path d="M11 11V5H13V11H19V13H13V19H11V13H5V11H11Z" fill="currentColor"></path>
  </symbol>
  <symbol fill="none" xmlns="http://www.w3.org/2000/svg" viewBox="0 0 24 24" id="icon-search">
    <path d="M11 2C15.968 2 20 6.032 20 11C20 15.968 15.968 20 11 20C6.032 20 2 15.968 2 11C2 6.032 6.032 2 11 2ZM11 18C14.867 18 18 14.867 18 11C18 7.132 14.867 4 11 4C7.132 4 4 7.132 4 11C4 14.867 7.132 18 11 18ZM19.485 18.071L22.314 20.899L20.899 22.314L18.071 19.485L19.485 18.071V18.071Z" fill="currentColor"></path>
  </symbol>
  <symbol fill="none" xmlns="http://www.w3.org/2000/svg" viewBox="0 0 24 24" id="icon-timer">
    <path d="M12 22C6.477 22 2 17.523 2 12C2 6.477 6.477 2 12 2C17.523 2 22 6.477 22 12C22 17.523 17.523 22 12 22ZM12 20C14.1217 20 16.1566 19.1571 17.6569 17.6569C19.1571 16.1566 20 14.1217 20 12C20 9.87827 19.1571 7.84344 17.6569 6.34315C16.1566 4.84285 14.1217 4 12 4C9.87827 4 7.84344 4.84285 6.34315 6.34315C4.84285 7.84344 4 9.87827 4 12C4 14.1217 4.84285 16.1566 6.34315 17.6569C7.84344 19.1571 9.87827 20 12 20V20ZM13 12H17V14H11V7H13V12Z" fill="currentColor"></path>
  </symbol>
  <symbol fill="none" xmlns="http://www.w3.org/2000/svg" viewBox="0 0 24 24" id="icon-unhappy">
    <path d="M12 22C6.477 22 2 17.523 2 12C2 6.477 6.477 2 12 2C17.523 2 22 6.477 22 12C22 17.523 17.523 22 12 22ZM12 20C14.1217 20 16.1566 19.1571 17.6569 17.6569C19.1571 16.1566 20 14.1217 20 12C20 9.87827 19.1571 7.84344 17.6569 6.34315C16.1566 4.84285 14.1217 4 12 4C9.87827 4 7.84344 4.84285 6.34315 6.34315C4.84285 7.84344 4 9.87827 4 12C4 14.1217 4.84285 16.1566 6.34315 17.6569C7.84344 19.1571 9.87827 20 12 20V20ZM7 17C7 15.6739 7.52678 14.4021 8.46447 13.4645C9.40215 12.5268 10.6739 12 12 12C13.3261 12 14.5979 12.5268 15.5355 13.4645C16.4732 14.4021 17 15.6739 17 17H15C15 16.2044 14.6839 15.4413 14.1213 14.8787C13.5587 14.3161 12.7956 14 12 14C11.2044 14 10.4413 14.3161 9.87868 14.8787C9.31607 15.4413 9 16.2044 9 17H7ZM8 11C7.60218 11 7.22064 10.842 6.93934 10.5607C6.65804 10.2794 6.5 9.89782 6.5 9.5C6.5 9.10218 6.65804 8.72064 6.93934 8.43934C7.22064 8.15804 7.60218 8 8 8C8.39782 8 8.77936 8.15804 9.06066 8.43934C9.34196 8.72064 9.5 9.10218 9.5 9.5C9.5 9.89782 9.34196 10.2794 9.06066 10.5607C8.77936 10.842 8.39782 11 8 11ZM16 11C15.6022 11 15.2206 10.842 14.9393 10.5607C14.658 10.2794 14.5 9.89782 14.5 9.5C14.5 9.10218 14.658 8.72064 14.9393 8.43934C15.2206 8.15804 15.6022 8 16 8C16.3978 8 16.7794 8.15804 17.0607 8.43934C17.342 8.72064 17.5 9.10218 17.5 9.5C17.5 9.89782 17.342 10.2794 17.0607 10.5607C16.7794 10.842 16.3978 11 16 11Z" fill="currentColor"></path>
  </symbol>
  <symbol fill="none" xmlns="http://www.w3.org/2000/svg" viewBox="0 0 24 24" id="icon-arrow">
    <path d="M13 7.828V20H11V7.828L5.636 13.192L4.222 11.778L12 4L19.778 11.778L18.364 13.192L13 7.828Z" fill="currentColor"></path>
  </symbol>
  <symbol fill="none" xmlns="http://www.w3.org/2000/svg" viewBox="0 0 24 24" id="icon-chevron">
    <path d="M12 10.828L7.05 15.778L5.636 14.364L12 8L18.364 14.364L16.95 15.778L12 10.828Z" fill="currentColor"></path>
  </symbol>
  <symbol fill="none" xmlns="http://www.w3.org/2000/svg" viewBox="0 0 24 24" id="icon-close">
    <path d="M12 10.586L16.95 5.636L18.364 7.05L13.414 12L18.364 16.95L16.95 18.364L12 13.414L7.05 18.364L5.636 16.95L10.586 12L5.636 7.05L7.05 5.636L12 10.586Z" fill="currentColor"></path>
  </symbol>
  <symbol fill="none" xmlns="http://www.w3.org/2000/svg" viewBox="0 0 24 24" id="icon-trash">
    <path d="M17 6h5v2h-2v13a1 1 0 0 1-1 1H5a1 1 0 0 1-1-1V8H2V6h5V3a1 1 0 0 1 1-1h8a1 1 0 0 1 1 1v3zm1 2H6v12h12V8zm-9 3h2v6H9v-6zm4 0h2v6h-2v-6zM9 4v2h6V4H9z" fill="currentColor"></path>
  </symbol>
  <symbol fill="none" xmlns="http://www.w3.org/2000/svg" viewBox="0 0 100 34" id="logo">
    <path fill-rule="evenodd" clip-rule="evenodd" d="M54.9957 9.58216V13.2877H44.7015V9.58216C43.029 9.58216 41.742 8.30489 41.742 6.64384C41.742 4.98278 43.029 3.70514 44.7015 3.70514C45.8598 3.70514 46.889 4.34415 47.404 5.36619L48.6907 4.72718C48.3044 4.08817 47.9186 3.44953 47.2753 3.0665C47.7898 2.17189 48.6907 1.53325 49.8486 1.53325C51.5215 1.53325 52.8082 2.8109 52.8082 4.47157C52.8082 4.98278 52.6794 5.49399 52.4223 6.00483L53.709 6.77164C54.1321 6.07873 54.3548 5.28289 54.3523 4.47195V3.83294C54.6098 3.70514 54.8669 3.70514 55.1244 3.70514C56.7973 3.70514 58.084 4.98316 58.084 6.64384C58.084 8.30452 56.6686 9.58216 54.9957 9.58216ZM54.9957 16.226H44.7015V14.8206H54.9957V16.226ZM54.9957 2.30007C54.6098 2.30007 54.2236 2.42749 53.709 2.42749C52.9369 1.02204 51.5215 0 49.8486 0C48.1761 0 46.6319 0.894239 45.9886 2.42749C45.6024 2.29969 45.2165 2.29969 44.7015 2.29969C42.2569 2.29969 40.3265 4.21635 40.3265 6.64384C40.3265 8.56012 41.6136 10.2208 43.2861 10.7324V17.5036H56.5398V10.8602C58.2127 10.2212 59.4994 8.68792 59.4994 6.77164C59.4994 4.34415 57.4406 2.30007 54.9957 2.30007ZM48.4332 11.7544H47.0178V8.94353H48.4332V11.7544ZM52.8082 11.7544H51.3927V8.94353H52.8082V11.7544Z" fill="currentColor"></path>
    <path d="M0 31.0053V21.4769H1.74999V29.6441H5.98826V31.0053H0ZM10.4772 31.1687C9.79358 31.1687 9.18746 31.0235 8.65882 30.7331C8.13676 30.4492 7.70559 30.0246 7.41468 29.508C7.1139 28.9817 6.96351 28.3737 6.96351 27.684C6.96351 26.9852 7.10935 26.3636 7.40101 25.8191C7.70179 25.2746 8.11195 24.8527 8.63148 24.5532C9.16012 24.2447 9.77991 24.0904 10.4908 24.0904C11.1562 24.0904 11.7441 24.2356 12.2545 24.526C12.7555 24.8069 13.1676 25.2218 13.444 25.7238C13.7356 26.223 13.8815 26.7811 13.8815 27.3981C13.8815 27.498 13.8769 27.6023 13.8678 27.7112C13.8678 27.8201 13.8632 27.9335 13.8541 28.0515H8.69983C8.73629 28.5779 8.91858 28.9907 9.24671 29.2902C9.58395 29.5897 9.98954 29.7394 10.4635 29.7394C10.819 29.7394 11.1152 29.6623 11.3522 29.508C11.5898 29.3544 11.7793 29.1375 11.899 28.8819H13.6764C13.5466 29.3124 13.3277 29.7112 13.0338 30.0525C12.7421 30.3973 12.3776 30.6696 11.9401 30.8692C11.5117 31.0689 11.024 31.1687 10.4772 31.1687ZM10.4908 25.5061C10.0625 25.5061 9.68421 25.6286 9.35608 25.8736C9.02796 26.1095 8.81832 26.4725 8.72718 26.9625H12.1041C12.0768 26.5179 11.9127 26.164 11.6119 25.9008C11.3112 25.6376 10.9375 25.5061 10.4908 25.5061ZM18.1558 31.1687C17.5542 31.1687 17.0256 31.0734 16.5699 30.8828C16.1141 30.6832 15.7496 30.4109 15.4761 30.0661C15.2027 29.7213 15.0386 29.322 14.9839 28.8682H16.7476C16.8023 29.1314 16.9481 29.3583 17.1851 29.5488C17.4312 29.7303 17.7456 29.8211 18.1285 29.8211C18.5113 29.8211 18.7893 29.744 18.9624 29.5897C19.1447 29.4354 19.2359 29.2585 19.2359 29.0588C19.2359 28.7684 19.1083 28.5733 18.8531 28.4735C18.5979 28.3646 18.2424 28.2602 17.7867 28.1604C17.4875 28.0949 17.191 28.0177 16.898 27.929C16.5972 27.8383 16.3192 27.7248 16.064 27.5887C15.827 27.4517 15.6219 27.2661 15.4624 27.0442C15.3075 26.8174 15.23 26.5406 15.23 26.2139C15.23 25.6149 15.467 25.1113 15.941 24.7029C16.424 24.2946 17.0985 24.0904 17.9644 24.0904C18.7665 24.0904 19.4045 24.2764 19.8784 24.6485C20.3615 25.0206 20.6486 25.5333 20.7398 26.1867H19.0855C18.9852 25.6875 18.607 25.438 17.9507 25.438C17.6226 25.438 17.3674 25.5015 17.1851 25.6286C17.0119 25.7556 16.9253 25.9144 16.9253 26.105C16.9253 26.3046 17.0575 26.4634 17.3218 26.5814C17.5861 26.6994 17.937 26.8083 18.3745 26.9081C18.8485 27.017 19.2814 27.1395 19.6734 27.2756C20.0744 27.4027 20.3934 27.5978 20.6304 27.8609C20.8674 28.115 20.9859 28.4826 20.9859 28.9635C20.995 29.381 20.8856 29.7576 20.6577 30.0933C20.4299 30.4291 20.1018 30.6923 19.6734 30.8828C19.245 31.0734 18.7391 31.1687 18.1558 31.1687ZM25.7938 34V24.2537H27.3524L27.5438 25.2202C27.7625 24.9207 28.0496 24.6576 28.4051 24.4307C28.7697 24.2038 29.2391 24.0904 29.8133 24.0904C30.4513 24.0904 31.021 24.2447 31.5223 24.5532C32.0236 24.8617 32.4201 25.2837 32.7117 25.8191C33.0034 26.3545 33.1492 26.9625 33.1492 27.6432C33.1492 28.3238 33.0034 28.9318 32.7117 29.4672C32.432 29.9809 32.0219 30.4127 31.5223 30.7195C31.021 31.019 30.4513 31.1687 29.8133 31.1687C29.3029 31.1687 28.8563 31.0734 28.4735 30.8828C28.0991 30.6996 27.7788 30.4229 27.5438 30.0797V34H25.7938ZM29.4442 29.6441C30.0001 29.6441 30.4604 29.4581 30.825 29.086C31.1896 28.714 31.3719 28.233 31.3719 27.6432C31.3719 27.0533 31.1896 26.5678 30.825 26.1867C30.4604 25.8055 30.0001 25.6149 29.4442 25.6149C28.8791 25.6149 28.4142 25.8055 28.0496 26.1867C27.6942 26.5587 27.5164 27.0397 27.5164 27.6295C27.5164 28.2194 27.6942 28.7049 28.0496 29.086C28.4142 29.4581 28.8791 29.6441 29.4442 29.6441ZM38.0077 31.1687C37.3241 31.1687 36.7179 31.0235 36.1893 30.7331C35.6672 30.4492 35.2361 30.0246 34.9452 29.508C34.6444 28.9817 34.494 28.3737 34.494 27.684C34.494 26.9852 34.6398 26.3636 34.9315 25.8191C35.2323 25.2746 35.6424 24.8527 36.162 24.5532C36.6906 24.2447 37.3104 24.0904 38.0213 24.0904C38.6867 24.0904 39.2746 24.2356 39.785 24.526C40.286 24.8069 40.698 25.2218 40.9744 25.7238C41.2661 26.223 41.4119 26.7811 41.4119 27.3981C41.4119 27.498 41.4074 27.6023 41.3983 27.7112C41.3983 27.8201 41.3937 27.9335 41.3846 28.0515H36.2303C36.2668 28.5779 36.4491 28.9907 36.7772 29.2902C37.1144 29.5897 37.52 29.7394 37.994 29.7394C38.3495 29.7394 38.6457 29.6623 38.8827 29.508C39.1203 29.3544 39.3097 29.1375 39.4295 28.8819H41.2069C41.077 29.3124 40.8582 29.7112 40.5643 30.0525C40.2726 30.3973 39.908 30.6696 39.4705 30.8692C39.0422 31.0689 38.5545 31.1687 38.0077 31.1687ZM38.0213 25.5061C37.5929 25.5061 37.2147 25.6286 36.8866 25.8736C36.5584 26.1095 36.3488 26.4725 36.2577 26.9625H39.6346C39.6073 26.5179 39.4432 26.164 39.1424 25.9008C38.8416 25.6376 38.4679 25.5061 38.0213 25.5061ZM45.785 31.0053C45.0741 31.0053 44.5044 30.8329 44.076 30.4881C43.6477 30.1432 43.4335 29.5307 43.4335 28.6504V25.7102H42.2714V24.2537H43.4335L43.6385 22.4433H45.1835V24.2537H47.0155V25.7102H45.1835V28.6641C45.1835 28.9907 45.2518 29.2176 45.3885 29.3447C45.5344 29.4626 45.7805 29.5216 46.1268 29.5216H46.9745V31.0053H45.785ZM49.4612 23.2056C49.1422 23.2056 48.8779 23.1103 48.6683 22.9198C48.4677 22.7292 48.3675 22.4887 48.3675 22.1983C48.3675 21.9079 48.4677 21.672 48.6683 21.4905C48.8779 21.2999 49.1422 21.2046 49.4612 21.2046C49.7802 21.2046 50.04 21.2999 50.2405 21.4905C50.4502 21.672 50.555 21.9079 50.555 22.1983C50.555 22.4887 50.4502 22.7292 50.2405 22.9198C50.04 23.1103 49.7802 23.2056 49.4612 23.2056ZM48.5862 31.0053V24.2537H50.3362V31.0053H48.5862ZM55.1844 31.0053C54.4735 31.0053 53.9038 30.8329 53.4754 30.4881C53.047 30.1432 52.8328 29.5307 52.8328 28.6504V25.7102H51.6707V24.2537H52.8328L53.0379 22.4433H54.5828V24.2537H56.4149V25.7102H54.5828V28.6641C54.5828 28.9907 54.6512 29.2176 54.7879 29.3447C54.9337 29.4626 55.1798 29.5216 55.5262 29.5216H56.3738V31.0053H55.1844ZM60.72 31.1687C60.1184 31.1687 59.5898 31.0734 59.134 30.8828C58.6783 30.6832 58.3137 30.4109 58.0403 30.0661C57.7669 29.7213 57.6028 29.322 57.5481 28.8682H59.3118C59.3665 29.1314 59.5123 29.3583 59.7493 29.5488C59.9954 29.7303 60.3098 29.8211 60.6926 29.8211C61.0754 29.8211 61.3534 29.744 61.5266 29.5897C61.7089 29.4354 61.8 29.2585 61.8 29.0588C61.8 28.7684 61.6724 28.5733 61.4172 28.4735C61.162 28.3646 60.8066 28.2602 60.3508 28.1604C60.0517 28.0949 59.7552 28.0177 59.4622 27.929C59.1614 27.8383 58.8834 27.7248 58.6282 27.5887C58.3911 27.4517 58.1861 27.2661 58.0266 27.0442C57.8717 26.8174 57.7942 26.5406 57.7942 26.2139C57.7942 25.6149 58.0312 25.1113 58.5051 24.7029C58.9882 24.2946 59.6627 24.0904 60.5286 24.0904C61.3306 24.0904 61.9687 24.2764 62.4426 24.6485C62.9257 25.0206 63.2128 25.5333 63.3039 26.1867H61.6497C61.5494 25.6875 61.1711 25.438 60.5149 25.438C60.1868 25.438 59.9316 25.5015 59.7493 25.6286C59.5761 25.7556 59.4895 25.9144 59.4895 26.105C59.4895 26.3046 59.6217 26.4634 59.886 26.5814C60.1503 26.6994 60.5012 26.8083 60.9387 26.9081C61.4127 27.017 61.8456 27.1395 62.2375 27.2756C62.6386 27.4027 62.9576 27.5978 63.1946 27.8609C63.4315 28.115 63.55 28.4826 63.55 28.9635C63.5591 29.381 63.4498 29.7576 63.2219 30.0933C62.994 30.4291 62.6659 30.6923 62.2375 30.8828C61.8092 31.0734 61.3033 31.1687 60.72 31.1687ZM68.3583 34V24.2537H69.9169L70.1083 25.2202C70.3271 24.9207 70.6142 24.6576 70.9697 24.4307C71.3342 24.2038 71.8036 24.0904 72.3779 24.0904C73.0159 24.0904 73.5855 24.2447 74.0868 24.5532C74.5881 24.8617 74.9846 25.2837 75.2763 25.8191C75.5679 26.3545 75.7138 26.9625 75.7138 27.6432C75.7138 28.3238 75.5679 28.9318 75.2763 29.4672C74.9966 29.9809 74.5864 30.4127 74.0868 30.7195C73.5855 31.019 73.0159 31.1687 72.3779 31.1687C71.8674 31.1687 71.4208 31.0734 71.038 30.8828C70.6637 30.6996 70.3434 30.4229 70.1083 30.0797V34H68.3583ZM72.0087 29.6441C72.5647 29.6441 73.025 29.4581 73.3896 29.086C73.7541 28.714 73.9364 28.233 73.9364 27.6432C73.9364 27.0533 73.7541 26.5678 73.3896 26.1867C73.025 25.8055 72.5647 25.6149 72.0087 25.6149C71.4436 25.6149 70.9788 25.8055 70.6142 26.1867C70.2587 26.5587 70.081 27.0397 70.081 27.6295C70.081 28.2194 70.2587 28.7049 70.6142 29.086C70.9788 29.4581 71.4436 29.6441 72.0087 29.6441ZM77.2769 31.0053V21.2046H79.0269V31.0053H77.2769ZM83.1528 31.1687C82.5694 31.1687 82.0909 31.0779 81.7172 30.8964C81.3435 30.7059 81.0655 30.4563 80.8832 30.1478C80.7007 29.8385 80.6062 29.4856 80.6098 29.1269C80.6098 28.5007 80.8559 27.9925 81.3481 27.6023C81.8403 27.2121 82.5785 27.017 83.5629 27.017H85.2856V26.8536C85.2856 26.3908 85.1534 26.0505 84.8891 25.8327C84.6248 25.6149 84.2966 25.5061 83.9047 25.5061C83.5492 25.5061 83.2394 25.5923 82.975 25.7647C82.7107 25.928 82.5466 26.173 82.4828 26.4997H80.7739C80.8194 26.0097 80.9835 25.5832 81.2661 25.2202C81.5577 24.8572 81.9314 24.5804 82.3871 24.3899C82.8429 24.1902 83.3533 24.0904 83.9184 24.0904C84.8845 24.0904 85.6456 24.3309 86.2016 24.8118C86.7576 25.2928 87.0356 25.9734 87.0356 26.8536V31.0053H85.5453L85.3813 29.9164C85.1786 30.2817 84.8872 30.5906 84.5336 30.8148C84.1781 31.0507 83.7179 31.1687 83.1528 31.1687ZM83.5492 29.8075C84.0505 29.8075 84.4379 29.6441 84.7113 29.3174C84.9939 28.9907 85.1716 28.5869 85.2446 28.106H83.7543C83.2895 28.106 82.9568 28.1922 82.7563 28.3646C82.5558 28.5279 82.4555 28.7321 82.4555 28.9771C82.4555 29.2403 82.5558 29.4445 82.7563 29.5897C82.9568 29.7349 83.2211 29.8075 83.5492 29.8075ZM91.6339 31.0053C90.9229 31.0053 90.3532 30.8329 89.9249 30.4881C89.4965 30.1432 89.2823 29.5307 89.2823 28.6504V25.7102H88.1202V24.2537H89.2823L89.4874 22.4433H91.0323V24.2537H92.8643V25.7102H91.0323V28.6641C91.0323 28.9907 91.1006 29.2176 91.2374 29.3447C91.3832 29.4626 91.6293 29.5216 91.9756 29.5216H92.8233V31.0053H91.6339ZM97.1694 31.1687C96.5679 31.1687 96.0392 31.0734 95.5835 30.8828C95.1278 30.6832 94.7632 30.4109 94.4897 30.0661C94.2163 29.7213 94.0522 29.322 93.9976 28.8682H95.7612C95.8159 29.1314 95.9617 29.3583 96.1987 29.5488C96.4448 29.7303 96.7593 29.8211 97.1421 29.8211C97.5249 29.8211 97.8029 29.744 97.9761 29.5897C98.1583 29.4354 98.2495 29.2585 98.2495 29.0588C98.2495 28.7684 98.1219 28.5733 97.8667 28.4735C97.6115 28.3646 97.256 28.2602 96.8003 28.1604C96.5011 28.0949 96.2047 28.0177 95.9116 27.929C95.6108 27.8383 95.3328 27.7248 95.0776 27.5887C94.8406 27.4517 94.6355 27.2661 94.4761 27.0442C94.3211 26.8174 94.2436 26.5406 94.2436 26.2139C94.2436 25.6149 94.4806 25.1113 94.9546 24.7029C95.4377 24.2946 96.1121 24.0904 96.978 24.0904C97.7801 24.0904 98.4181 24.2764 98.8921 24.6485C99.3751 25.0206 99.6622 25.5333 99.7534 26.1867H98.0991C97.9988 25.6875 97.6206 25.438 96.9643 25.438C96.6362 25.438 96.381 25.5015 96.1987 25.6286C96.0255 25.7556 95.9389 25.9144 95.9389 26.105C95.9389 26.3046 96.0711 26.4634 96.3354 26.5814C96.5998 26.6994 96.9507 26.8083 97.3882 26.9081C97.8621 27.017 98.295 27.1395 98.687 27.2756C99.088 27.4027 99.407 27.5978 99.644 27.8609C99.881 28.115 99.9995 28.4826 99.9995 28.9635C100.009 29.381 99.8992 29.7576 99.6713 30.0933C99.4435 30.4291 99.1154 30.6923 98.687 30.8828C98.2586 31.0734 97.7527 31.1687 97.1694 31.1687Z" fill="currentColor"></path>
  </symbol>
</svg>