<svg xmlns="http://www.w3.org/2000/svg" version="1.1" xmlns:xlink="http://www.w3.org/1999/xlink" xmlns:svgjs="http://svgjs.com/svgjs" width="100" height="100"><svg fill="none" xmlns="http://www.w3.org/2000/svg" viewBox="0 0 100 100">
  <path fill-rule="evenodd" clip-rule="evenodd" d="M76.51 54.27v19.051H22.82v-19.05c-8.725 0-15.436-6.57-15.436-15.11s6.711-15.11 15.436-15.11c6.04 0 11.41 3.285 14.094 8.54l6.711-3.284c-2.013-3.285-4.027-6.57-7.382-8.54 2.684-4.6 7.382-7.884 13.422-7.884 8.725 0 15.437 6.57 15.437 15.11 0 2.627-.671 5.255-2.014 7.883l6.712 3.942c2.013-3.285 3.355-7.227 3.355-11.825v-3.285c1.343-.657 2.685-.657 4.027-.657 8.725 0 15.436 6.57 15.436 15.11S85.235 54.27 76.51 54.27Zm0 34.16H22.82v-7.226H76.51v7.227Zm0-71.605c-2.013 0-4.027.657-6.711.657C65.772 10.256 58.389 5 49.664 5 40.94 5 32.886 9.599 29.53 17.482c-2.013-.657-4.027-.657-6.711-.657C10.067 16.825 0 26.679 0 39.16c0 9.854 6.711 18.394 15.436 21.021V95h69.128V60.84C93.289 57.554 100 49.67 100 39.816c0-12.481-10.738-22.992-23.49-22.992ZM42.282 65.438h-7.383V50.985h7.383v14.453Zm22.819 0h-7.383V50.985h7.383v14.453Z" fill="#D04F4F"></path>
</svg><style>@media (prefers-color-scheme: light) { :root { filter: none; } }
</style></svg>